<svg width="40" height="40" viewBox="0 0 40 40" fill="none" xmlns="http://www.w3.org/2000/svg">
<g clip-path="url(#clip0_115_65)">
<path d="M20 3.3335C12.6334 3.3335 6.66669 4.16683 6.66669 10.0002V25.8335C6.66669 29.0502 9.28335 31.6668 12.5 31.6668L10 34.1668V35.0002H30V34.1668L27.5 31.6668C30.7167 31.6668 33.3334 29.0502 33.3334 25.8335V10.0002C33.3334 4.16683 27.3667 3.3335 20 3.3335ZM12.5 28.3335C11.1167 28.3335 10 27.2168 10 25.8335C10 24.4502 11.1167 23.3335 12.5 23.3335C13.8834 23.3335 15 24.4502 15 25.8335C15 27.2168 13.8834 28.3335 12.5 28.3335ZM18.3334 18.3335H10V10.0002H18.3334V18.3335ZM27.5 28.3335C26.1167 28.3335 25 27.2168 25 25.8335C25 24.4502 26.1167 23.3335 27.5 23.3335C28.8834 23.3335 30 24.4502 30 25.8335C30 27.2168 28.8834 28.3335 27.5 28.3335ZM30 18.3335H21.6667V10.0002H30V18.3335Z" fill="black"/>
</g>
<defs>
<clipPath id="clip0_115_65">
<rect width="40" height="40" fill="white"/>
</clipPath>
</defs>
</svg>
