<svg width="96" height="143" viewBox="0 0 96 143" fill="none" xmlns="http://www.w3.org/2000/svg">
<circle cx="48" cy="48" r="48" fill="#FAB348"/>
<path d="M51.4267 130.002C50.7239 133.123 46.2761 133.123 45.5733 130.002L32.4364 71.659C32.014 69.7833 33.4404 68 35.3631 68H61.6369C63.5596 68 64.986 69.7833 64.5636 71.659L51.4267 130.002Z" fill="#FAB348"/>
<path d="M65.25 28.2498H31.75V53.7998C31.75 57.8148 34.765 61.0998 38.45 61.0998H55.2C58.885 61.0998 61.9 57.8148 61.9 53.7998V42.8498H65.25C67.0925 42.8498 68.6 41.2073 68.6 39.1998V31.8998C68.6 29.8923 67.0925 28.2498 65.25 28.2498ZM43.475 39.9298L45.15 41.1708V46.4998H41.8V41.1708L43.475 39.9298ZM58.55 42.8498V53.7998C58.55 55.8073 57.0425 57.4498 55.2 57.4498H38.45C36.6075 57.4498 35.1 55.8073 35.1 53.7998V31.8998H42.6375V36.1703L38.8185 38.9443C38.584 39.0903 38.45 39.3823 38.45 39.6743V49.2373C38.45 49.7483 38.8185 50.1498 39.2875 50.1498H47.6625C48.1315 50.1498 48.5 49.7483 48.5 49.2373V39.6743C48.5 39.3823 48.366 39.0903 48.1315 38.9078L44.3125 36.1703V31.8998H58.55V42.8498ZM65.25 39.1998H61.9V31.8998H65.25V39.1998Z" fill="white"/>
<path d="M28.3999 64.75H65.2499V68.4H28.3999V64.75Z" fill="white"/>
</svg>
