<svg width="23" height="22" viewBox="0 0 23 22" fill="none" xmlns="http://www.w3.org/2000/svg">
<path d="M13.5317 3.66683L15.2854 5.50016H19.1667V16.5002H3.83335V5.50016H7.7146L9.46835 3.66683H13.5317ZM14.375 1.8335H8.62502L6.87127 3.66683H3.83335C2.77919 3.66683 1.91669 4.49183 1.91669 5.50016V16.5002C1.91669 17.5085 2.77919 18.3335 3.83335 18.3335H19.1667C20.2209 18.3335 21.0834 17.5085 21.0834 16.5002V5.50016C21.0834 4.49183 20.2209 3.66683 19.1667 3.66683H16.1288L14.375 1.8335ZM11.5 8.25016C13.0813 8.25016 14.375 9.48766 14.375 11.0002C14.375 12.5127 13.0813 13.7502 11.5 13.7502C9.91877 13.7502 8.62502 12.5127 8.62502 11.0002C8.62502 9.48766 9.91877 8.25016 11.5 8.25016ZM11.5 6.41683C8.85502 6.41683 6.70835 8.47016 6.70835 11.0002C6.70835 13.5302 8.85502 15.5835 11.5 15.5835C14.145 15.5835 16.2917 13.5302 16.2917 11.0002C16.2917 8.47016 14.145 6.41683 11.5 6.41683Z" fill="#FF7152"/>
</svg>
