<svg width="23" height="22" viewBox="0 0 23 22" fill="none" xmlns="http://www.w3.org/2000/svg">
<path d="M15.3333 5.25384V10.5078C15.3333 11.471 16.1958 12.2591 17.25 12.2591H18.2083V18.3886C18.2083 18.8702 18.6396 19.2643 19.1667 19.2643C19.6938 19.2643 20.125 18.8702 20.125 18.3886V2.74071C20.125 2.17153 19.5404 1.75122 18.9367 1.88257C16.8667 2.34667 15.3333 3.94911 15.3333 5.25384ZM10.5417 7.8808H8.625V2.62687C8.625 2.14526 8.19375 1.75122 7.66667 1.75122C7.13958 1.75122 6.70833 2.14526 6.70833 2.62687V7.8808H4.79167V2.62687C4.79167 2.14526 4.36042 1.75122 3.83333 1.75122C3.30625 1.75122 2.875 2.14526 2.875 2.62687V7.8808C2.875 9.81599 4.59042 11.3834 6.70833 11.3834V18.3886C6.70833 18.8702 7.13958 19.2643 7.66667 19.2643C8.19375 19.2643 8.625 18.8702 8.625 18.3886V11.3834C10.7429 11.3834 12.4583 9.81599 12.4583 7.8808V2.62687C12.4583 2.14526 12.0271 1.75122 11.5 1.75122C10.9729 1.75122 10.5417 2.14526 10.5417 2.62687V7.8808Z" fill="#FBE300"/>
</svg>
