<svg width="96" height="143" viewBox="0 0 96 143" fill="none" xmlns="http://www.w3.org/2000/svg">
<circle cx="48.0001" cy="48" r="48" fill="#FFD94C"/>
<path d="M51.4268 130.002C50.724 133.123 46.2762 133.123 45.5734 130.002L32.4365 71.659C32.0142 69.7833 33.4405 68 35.3632 68H61.637C63.5597 68 64.9861 69.7833 64.5637 71.659L51.4268 130.002Z" fill="#FFD94C"/>
<path opacity="0.3" d="M48.3492 41.7256H35.0099V56.5884H47.6804L51.3961 60.3041H61.0198V45.4413H52.0649L48.3492 41.7256Z" fill="white"/>
<path d="M53.5883 41.7256L49.8726 38.0099H35.0098V33.7368C36.0874 33.068 36.8677 31.9533 36.8677 30.5785C36.8677 28.5349 35.1956 26.8628 33.152 26.8628C31.1083 26.8628 29.4363 28.5349 29.4363 30.5785C29.4363 31.9533 30.2166 33.068 31.2941 33.7368V71.4511H35.0098V60.3041H46.1569L49.8726 64.0197H64.7354V41.7256H53.5883ZM61.0197 60.3041H51.396L47.6803 56.5884H35.0098V41.7256H48.3492L52.0649 45.4413H61.0197V60.3041Z" fill="white"/>
</svg>
