<svg width="28" height="26" viewBox="0 0 28 26" fill="none" xmlns="http://www.w3.org/2000/svg">
<path d="M21 6.39612H7V15.3506C7 16.7578 8.26 17.9091 9.8 17.9091H16.8C18.34 17.9091 19.6 16.7578 19.6 15.3506V11.513H21C21.77 11.513 22.4 10.9373 22.4 10.2338V7.67533C22.4 6.97177 21.77 6.39612 21 6.39612ZM11.9 10.4896L12.6 10.9245V12.7922H11.2V10.9245L11.9 10.4896ZM18.2 11.513V15.3506C18.2 16.0542 17.57 16.6298 16.8 16.6298H9.8C9.03 16.6298 8.4 16.0542 8.4 15.3506V7.67533H11.55V9.17202L9.954 10.1442C9.856 10.1954 9.8 10.2977 9.8 10.4001V13.7516C9.8 13.9307 9.954 14.0714 10.15 14.0714H13.65C13.846 14.0714 14 13.9307 14 13.7516V10.4001C14 10.2977 13.944 10.1954 13.846 10.1314L12.25 9.17202V7.67533H18.2V11.513ZM21 10.2338H19.6V7.67533H21V10.2338Z" fill="#FAB348"/>
<path d="M5.59998 19.1882H21V20.4674H5.59998V19.1882Z" fill="#FAB348"/>
</svg>
