<svg width="43" height="43" viewBox="0 0 43 43" fill="none" xmlns="http://www.w3.org/2000/svg">
<path d="M21.5 3.58325C14.5663 3.58325 8.95837 9.19117 8.95837 16.1249C8.95837 19.2424 9.85421 22.1628 11.4846 24.7966C13.1867 27.5558 15.4263 29.9208 17.1463 32.6799C17.9884 34.0237 18.5975 35.2778 19.2425 36.7291C19.7084 37.7145 20.0846 39.4166 21.5 39.4166C22.9155 39.4166 23.2917 37.7145 23.7396 36.7291C24.4025 35.2778 24.9938 34.0237 25.8359 32.6799C27.5559 29.9387 29.7955 27.5737 31.4975 24.7966C33.1459 22.1628 34.0417 19.2424 34.0417 16.1249C34.0417 9.19117 28.4338 3.58325 21.5 3.58325ZM21.5 21.052C19.0275 21.052 17.0209 19.0453 17.0209 16.5728C17.0209 14.1003 19.0275 12.0937 21.5 12.0937C23.9725 12.0937 25.9792 14.1003 25.9792 16.5728C25.9792 19.0453 23.9725 21.052 21.5 21.052Z" fill="#808080"/>
</svg>
