<svg width="28" height="28" viewBox="0 0 28 28" fill="none" xmlns="http://www.w3.org/2000/svg">
<path d="M21.3382 18.3282L15.9948 23.6715C15.5398 24.1265 14.7932 24.1265 14.3382 23.6715C13.8832 23.2165 13.8832 22.4698 14.3382 22.0148L17.6982 18.6665H5.83317C5.1915 18.6665 4.6665 18.1415 4.6665 17.4998V5.83317C4.6665 5.1915 5.1915 4.6665 5.83317 4.6665C6.47484 4.6665 6.99984 5.1915 6.99984 5.83317V16.3332H17.6982L14.3382 12.9848C13.8832 12.5298 13.8832 11.7832 14.3382 11.3282C14.7932 10.8732 15.5398 10.8732 15.9948 11.3282L21.3382 16.6715C21.7932 17.1265 21.7932 17.8732 21.3382 18.3282Z" fill="black"/>
</svg>
