<svg version="1.1" id="Layer_1" xmlns="http://www.w3.org/2000/svg" xmlns:xlink="http://www.w3.org/1999/xlink" x="0px" y="0px"
	 width="100%" viewBox="0 0 4000 4000" enable-background="new 0 0 4000 4000" xml:space="preserve">
<path fill="#FFFFFF" opacity="1.000000" stroke="none" 
	d="
M1806.000000,4002.000000 
	C1204.000000,4002.000000 603.000000,4002.000000 2.000000,4002.000000 
	C2.000000,2668.666748 2.000000,1335.333374 2.000000,2.000000 
	C1335.333374,2.000000 2668.666748,2.000000 4002.000000,2.000000 
	C4002.000000,1335.333374 4002.000000,2668.666748 4002.000000,4002.000000 
	C3270.333252,4002.000000 2538.666748,4002.000000 1806.000000,4002.000000 
M1122.867920,2778.141357 
	C1148.847412,2804.912354 1173.908813,2832.652832 1200.970459,2858.281494 
	C1300.666382,2952.696533 1414.031982,3026.616699 1540.112793,3080.947266 
	C1676.570923,3139.749023 1819.272949,3170.709473 1967.656860,3175.568848 
	C2017.649780,3177.206055 2067.567383,3175.307373 2117.394531,3170.441895 
	C2167.506592,3165.548828 2217.096924,3157.709961 2266.145020,3146.384033 
	C2469.650879,3099.391602 2648.023193,3004.654541 2801.284424,2863.037842 
	C2917.785889,2755.387451 3008.556641,2628.878906 3073.868408,2484.260742 
	C3130.063965,2359.827148 3163.191650,2229.380615 3173.418701,2093.310059 
	C3176.185303,2056.499268 3176.161621,2019.439697 3176.398682,1982.487671 
	C3176.694092,1936.457520 3172.445557,1890.691284 3166.430420,1845.063721 
	C3158.275391,1783.202515 3145.382568,1722.352051 3127.022461,1662.756104 
	C3054.874023,1428.564575 2923.449951,1234.212524 2731.255859,1082.288940 
	C2518.610107,914.198914 2275.429443,831.087952 2004.598633,829.069763 
	C1970.016602,828.812073 1935.367676,831.421265 1900.822021,833.767395 
	C1846.571655,837.451721 1793.010986,846.327759 1740.100098,858.656799 
	C1536.780396,906.033081 1358.338013,1000.673218 1205.163208,1142.452515 
	C1095.841431,1243.641357 1009.019775,1361.676025 944.621948,1496.051147 
	C873.373535,1644.720703 835.861511,1801.684570 830.458496,1966.316528 
	C828.247009,2033.703613 832.182861,2100.818359 841.616028,2167.633789 
	C851.839111,2240.043945 868.521362,2310.875244 892.095154,2380.074951 
	C942.366577,2527.644043 1019.169739,2659.879395 1122.867920,2778.141357 
z"/>
<path fill="#F0B708" opacity="1.000000" stroke="none" 
	d="
M1122.392822,2777.612305 
	C1019.169739,2659.879395 942.366577,2527.644043 892.095154,2380.074951 
	C868.521362,2310.875244 851.839111,2240.043945 841.616028,2167.633789 
	C832.182861,2100.818359 828.247009,2033.703613 830.458496,1966.316528 
	C835.861511,1801.684570 873.373535,1644.720703 944.621948,1496.051147 
	C1009.019775,1361.676025 1095.841431,1243.641357 1205.163208,1142.452515 
	C1358.338013,1000.673218 1536.780396,906.033081 1740.100098,858.656799 
	C1793.010986,846.327759 1846.571655,837.451721 1900.822021,833.767395 
	C1935.367676,831.421265 1970.016602,828.812073 2004.598633,829.069763 
	C2275.429443,831.087952 2518.610107,914.198914 2731.255859,1082.288940 
	C2923.449951,1234.212524 3054.874023,1428.564575 3127.022461,1662.756104 
	C3145.382568,1722.352051 3158.275391,1783.202515 3166.430420,1845.063721 
	C3172.445557,1890.691284 3176.694092,1936.457520 3176.398682,1982.487671 
	C3176.161621,2019.439697 3176.185303,2056.499268 3173.418701,2093.310059 
	C3163.191650,2229.380615 3130.063965,2359.827148 3073.868408,2484.260742 
	C3008.556641,2628.878906 2917.785889,2755.387451 2801.284424,2863.037842 
	C2648.023193,3004.654541 2469.650879,3099.391602 2266.145020,3146.384033 
	C2217.096924,3157.709961 2167.506592,3165.548828 2117.394531,3170.441895 
	C2067.567383,3175.307373 2017.649780,3177.206055 1967.656860,3175.568848 
	C1819.272949,3170.709473 1676.570923,3139.749023 1540.112793,3080.947266 
	C1414.031982,3026.616699 1300.666382,2952.696533 1200.970459,2858.281494 
	C1173.908813,2832.652832 1148.847412,2804.912354 1122.392822,2777.612305 
M2340.416260,2282.661377 
	C2234.006104,2227.039307 2120.711914,2200.928223 2000.740845,2203.271729 
	C1945.892822,2204.343018 1891.705933,2210.971436 1838.713745,2224.985107 
	C1619.903687,2282.848633 1457.667603,2412.219971 1351.566528,2612.082275 
	C1349.717041,2615.566162 1347.784180,2619.006104 1345.270264,2623.599365 
	C1331.952637,2608.457520 1321.577515,2593.020752 1317.168823,2574.000977 
	C1315.804565,2568.115967 1315.920898,2563.187012 1320.370239,2558.320312 
	C1325.056030,2553.195068 1326.727905,2546.743896 1324.960449,2539.701660 
	C1320.718140,2522.798584 1300.518311,2516.250732 1286.706543,2527.604736 
	C1275.785767,2536.582275 1270.862183,2548.728760 1269.933960,2562.624023 
	C1268.837280,2579.042969 1272.984497,2594.442871 1280.091797,2608.958984 
	C1299.989502,2649.599854 1330.446411,2679.819580 1371.328979,2699.271240 
	C1385.984985,2706.244141 1401.540405,2709.596924 1417.906250,2708.159668 
	C1429.211670,2707.166992 1439.351074,2703.283447 1447.618896,2695.404541 
	C1460.329224,2683.291748 1455.337891,2663.039307 1438.564209,2657.879883 
	C1431.399292,2655.676270 1424.852905,2656.964844 1418.402222,2660.494873 
	C1415.602173,2662.026611 1412.234863,2663.949951 1409.350342,2663.634766 
	C1400.099854,2662.623779 1391.370361,2659.606689 1383.210571,2653.895264 
	C1384.256226,2651.433838 1385.056763,2649.300781 1386.045532,2647.259277 
	C1402.202271,2613.903076 1420.702271,2581.879395 1442.770264,2552.109619 
	C1566.547363,2385.134033 1733.209351,2293.765137 1938.979858,2272.498291 
	C1996.186768,2266.585938 2053.428955,2268.914551 2110.387207,2277.592285 
	C2198.982178,2291.090332 2282.234863,2319.724121 2359.341797,2365.483643 
	C2472.873779,2432.859863 2560.012939,2525.072021 2619.051270,2643.446533 
	C2620.768066,2646.888916 2622.282715,2650.432129 2624.202393,2654.604492 
	C2610.469482,2660.199707 2599.139404,2668.414795 2584.100098,2658.757812 
	C2574.535156,2652.615723 2561.338867,2658.233643 2555.448486,2667.836670 
	C2549.351074,2677.778809 2551.563477,2689.232422 2561.346191,2697.200439 
	C2569.879395,2704.151367 2579.774902,2707.611572 2590.753174,2708.303955 
	C2608.585938,2709.428223 2625.136475,2704.865479 2640.787109,2696.848877 
	C2677.166992,2678.216064 2704.831787,2650.610596 2724.155029,2614.655518 
	C2731.158203,2601.624756 2735.892822,2587.777100 2737.059326,2572.950928 
	C2738.402832,2555.875244 2734.464600,2540.427246 2721.354248,2528.475830 
	C2711.746826,2519.717773 2697.823242,2519.832031 2688.661865,2528.315186 
	C2679.975342,2536.358154 2679.067139,2548.392578 2687.085693,2558.885498 
	C2690.031006,2562.739746 2691.002686,2566.494873 2690.268311,2570.906250 
	C2686.865479,2591.340332 2675.717529,2607.481934 2661.851807,2623.677490 
	C2659.577148,2619.572021 2657.936768,2616.813232 2656.484131,2613.958740 
	C2639.693604,2580.964600 2621.040771,2549.071045 2600.156738,2518.493896 
	C2532.639404,2419.640381 2447.686523,2339.957520 2340.416260,2282.661377 
M1597.778931,1584.737793 
	C1594.835205,1619.512695 1597.262695,1653.987427 1604.156982,1688.124878 
	C1609.793945,1716.036621 1618.647095,1742.834106 1634.042358,1767.088501 
	C1641.428589,1778.724976 1650.153198,1789.198853 1661.797974,1796.838379 
	C1680.434570,1809.064697 1699.296631,1809.147827 1718.067871,1797.172119 
	C1727.751221,1790.994385 1735.387085,1782.638794 1742.037476,1773.351685 
	C1755.196899,1754.974976 1763.828979,1734.465820 1769.986816,1712.888306 
	C1786.099854,1656.427246 1787.704224,1599.257935 1777.156738,1541.715820 
	C1771.905884,1513.069092 1763.172729,1485.496338 1747.856689,1460.401855 
	C1740.686646,1448.654175 1732.250732,1437.986694 1720.973999,1429.821533 
	C1701.295776,1415.573364 1679.337524,1415.264648 1659.805054,1429.680176 
	C1653.703613,1434.183228 1648.198120,1439.712158 1643.206909,1445.455444 
	C1633.066162,1457.124756 1625.930786,1470.721924 1619.976685,1484.913940 
	C1606.828125,1516.254028 1600.317505,1549.113159 1597.778931,1584.737793 
M2224.311768,1642.452881 
	C2226.201904,1656.304199 2227.546875,1670.256836 2230.095459,1683.985962 
	C2235.414551,1712.636230 2244.129883,1740.166992 2259.542480,1765.206055 
	C2266.046387,1775.772583 2273.613037,1785.462036 2283.414062,1793.210938 
	C2305.025391,1810.296997 2328.689941,1810.290649 2350.219482,1793.212524 
	C2360.005615,1785.449707 2367.605469,1775.792969 2374.136475,1765.242554 
	C2385.097656,1747.535034 2392.582031,1728.340088 2397.989746,1708.326172 
	C2412.117188,1656.042114 2413.747559,1603.084229 2405.281494,1549.812988 
	C2400.448486,1519.401489 2391.799072,1490.070068 2376.195557,1463.182129 
	C2368.942627,1450.683838 2360.283691,1439.309448 2348.639648,1430.560425 
	C2327.855225,1414.943115 2304.669922,1415.218994 2284.178223,1431.204346 
	C2274.337158,1438.881348 2266.621582,1448.444824 2260.021973,1458.966797 
	C2247.678955,1478.645508 2239.904297,1500.192383 2234.090332,1522.525146 
	C2223.997559,1561.293823 2222.260986,1600.772461 2224.311768,1642.452881 
M2296.320801,2049.135742 
	C2297.547607,2066.371094 2297.745850,2083.758057 2300.253906,2100.804932 
	C2303.607666,2123.598633 2312.178223,2144.437988 2329.709961,2160.515381 
	C2353.058838,2181.927490 2386.544434,2181.056885 2408.795898,2158.516846 
	C2416.916748,2150.290283 2422.384277,2140.503662 2425.856689,2129.543701 
	C2432.492676,2108.600342 2430.792236,2087.803955 2422.349365,2068.041748 
	C2413.741943,2047.894043 2404.200195,2028.038818 2393.573730,2008.884521 
	C2375.274170,1975.899414 2359.047607,1942.126831 2347.888916,1906.013916 
	C2345.733887,1899.039551 2342.928223,1892.246216 2340.083984,1885.512451 
	C2338.441406,1881.623779 2336.630859,1877.526367 2330.394531,1876.103760 
	C2328.249756,1879.483398 2325.414062,1882.754028 2323.922852,1886.552612 
	C2320.891846,1894.273193 2318.175537,1902.169800 2316.050537,1910.185059 
	C2304.150146,1955.075806 2298.251221,2000.853149 2296.320801,2049.135742 
z"/>
<path fill="#030200" opacity="1.000000" stroke="none" 
	d="
M2341.047363,2283.044434 
	C2447.686523,2339.957520 2532.639404,2419.640381 2600.156738,2518.493896 
	C2621.040771,2549.071045 2639.693604,2580.964600 2656.484131,2613.958740 
	C2657.936768,2616.813232 2659.577148,2619.572021 2661.851807,2623.677490 
	C2675.717529,2607.481934 2686.865479,2591.340332 2690.268311,2570.906250 
	C2691.002686,2566.494873 2690.031006,2562.739746 2687.085693,2558.885498 
	C2679.067139,2548.392578 2679.975342,2536.358154 2688.661865,2528.315186 
	C2697.823242,2519.832031 2711.746826,2519.717773 2721.354248,2528.475830 
	C2734.464600,2540.427246 2738.402832,2555.875244 2737.059326,2572.950928 
	C2735.892822,2587.777100 2731.158203,2601.624756 2724.155029,2614.655518 
	C2704.831787,2650.610596 2677.166992,2678.216064 2640.787109,2696.848877 
	C2625.136475,2704.865479 2608.585938,2709.428223 2590.753174,2708.303955 
	C2579.774902,2707.611572 2569.879395,2704.151367 2561.346191,2697.200439 
	C2551.563477,2689.232422 2549.351074,2677.778809 2555.448486,2667.836670 
	C2561.338867,2658.233643 2574.535156,2652.615723 2584.100098,2658.757812 
	C2599.139404,2668.414795 2610.469482,2660.199707 2624.202393,2654.604492 
	C2622.282715,2650.432129 2620.768066,2646.888916 2619.051270,2643.446533 
	C2560.012939,2525.072021 2472.873779,2432.859863 2359.341797,2365.483643 
	C2282.234863,2319.724121 2198.982178,2291.090332 2110.387207,2277.592285 
	C2053.428955,2268.914551 1996.186768,2266.585938 1938.979858,2272.498291 
	C1733.209351,2293.765137 1566.547363,2385.134033 1442.770264,2552.109619 
	C1420.702271,2581.879395 1402.202271,2613.903076 1386.045532,2647.259277 
	C1385.056763,2649.300781 1384.256226,2651.433838 1383.210571,2653.895264 
	C1391.370361,2659.606689 1400.099854,2662.623779 1409.350342,2663.634766 
	C1412.234863,2663.949951 1415.602173,2662.026611 1418.402222,2660.494873 
	C1424.852905,2656.964844 1431.399292,2655.676270 1438.564209,2657.879883 
	C1455.337891,2663.039307 1460.329224,2683.291748 1447.618896,2695.404541 
	C1439.351074,2703.283447 1429.211670,2707.166992 1417.906250,2708.159668 
	C1401.540405,2709.596924 1385.984985,2706.244141 1371.328979,2699.271240 
	C1330.446411,2679.819580 1299.989502,2649.599854 1280.091797,2608.958984 
	C1272.984497,2594.442871 1268.837280,2579.042969 1269.933960,2562.624023 
	C1270.862183,2548.728760 1275.785767,2536.582275 1286.706543,2527.604736 
	C1300.518311,2516.250732 1320.718140,2522.798584 1324.960449,2539.701660 
	C1326.727905,2546.743896 1325.056030,2553.195068 1320.370239,2558.320312 
	C1315.920898,2563.187012 1315.804565,2568.115967 1317.168823,2574.000977 
	C1321.577515,2593.020752 1331.952637,2608.457520 1345.270264,2623.599365 
	C1347.784180,2619.006104 1349.717041,2615.566162 1351.566528,2612.082275 
	C1457.667603,2412.219971 1619.903687,2282.848633 1838.713745,2224.985107 
	C1891.705933,2210.971436 1945.892822,2204.343018 2000.740845,2203.271729 
	C2120.711914,2200.928223 2234.006104,2227.039307 2341.047363,2283.044434 
z"/>
<path fill="#010100" opacity="1.000000" stroke="none" 
	d="
M1597.806641,1583.805664 
	C1600.317505,1549.113159 1606.828125,1516.254028 1619.976685,1484.913940 
	C1625.930786,1470.721924 1633.066162,1457.124756 1643.206909,1445.455444 
	C1648.198120,1439.712158 1653.703613,1434.183228 1659.805054,1429.680176 
	C1679.337524,1415.264648 1701.295776,1415.573364 1720.973999,1429.821533 
	C1732.250732,1437.986694 1740.686646,1448.654175 1747.856689,1460.401855 
	C1763.172729,1485.496338 1771.905884,1513.069092 1777.156738,1541.715820 
	C1787.704224,1599.257935 1786.099854,1656.427246 1769.986816,1712.888306 
	C1763.828979,1734.465820 1755.196899,1754.974976 1742.037476,1773.351685 
	C1735.387085,1782.638794 1727.751221,1790.994385 1718.067871,1797.172119 
	C1699.296631,1809.147827 1680.434570,1809.064697 1661.797974,1796.838379 
	C1650.153198,1789.198853 1641.428589,1778.724976 1634.042358,1767.088501 
	C1618.647095,1742.834106 1609.793945,1716.036621 1604.156982,1688.124878 
	C1597.262695,1653.987427 1594.835205,1619.512695 1597.806641,1583.805664 
z"/>
<path fill="#010100" opacity="1.000000" stroke="none" 
	d="
M2224.265381,1641.503906 
	C2222.260986,1600.772461 2223.997559,1561.293823 2234.090332,1522.525146 
	C2239.904297,1500.192383 2247.678955,1478.645508 2260.021973,1458.966797 
	C2266.621582,1448.444824 2274.337158,1438.881348 2284.178223,1431.204346 
	C2304.669922,1415.218994 2327.855225,1414.943115 2348.639648,1430.560425 
	C2360.283691,1439.309448 2368.942627,1450.683838 2376.195557,1463.182129 
	C2391.799072,1490.070068 2400.448486,1519.401489 2405.281494,1549.812988 
	C2413.747559,1603.084229 2412.117188,1656.042114 2397.989746,1708.326172 
	C2392.582031,1728.340088 2385.097656,1747.535034 2374.136475,1765.242554 
	C2367.605469,1775.792969 2360.005615,1785.449707 2350.219482,1793.212524 
	C2328.689941,1810.290649 2305.025391,1810.296997 2283.414062,1793.210938 
	C2273.613037,1785.462036 2266.046387,1775.772583 2259.542480,1765.206055 
	C2244.129883,1740.166992 2235.414551,1712.636230 2230.095459,1683.985962 
	C2227.546875,1670.256836 2226.201904,1656.304199 2224.265381,1641.503906 
z"/>
<path fill="#FFFEFD" opacity="1.000000" stroke="none" 
	d="
M2296.329102,2048.164307 
	C2298.251221,2000.853149 2304.150146,1955.075806 2316.050537,1910.185059 
	C2318.175537,1902.169800 2320.891846,1894.273193 2323.922852,1886.552612 
	C2325.414062,1882.754028 2328.249756,1879.483398 2330.394531,1876.103760 
	C2336.630859,1877.526367 2338.441406,1881.623779 2340.083984,1885.512451 
	C2342.928223,1892.246216 2345.733887,1899.039551 2347.888916,1906.013916 
	C2359.047607,1942.126831 2375.274170,1975.899414 2393.573730,2008.884521 
	C2404.200195,2028.038818 2413.741943,2047.894043 2422.349365,2068.041748 
	C2430.792236,2087.803955 2432.492676,2108.600342 2425.856689,2129.543701 
	C2422.384277,2140.503662 2416.916748,2150.290283 2408.795898,2158.516846 
	C2386.544434,2181.056885 2353.058838,2181.927490 2329.709961,2160.515381 
	C2312.178223,2144.437988 2303.607666,2123.598633 2300.253906,2100.804932 
	C2297.745850,2083.758057 2297.547607,2066.371094 2296.329102,2048.164307 
z"/>
</svg>