<svg width="96" height="143" viewBox="0 0 96 143" fill="none" xmlns="http://www.w3.org/2000/svg">
<circle cx="48" cy="48" r="48" fill="#FF4154"/>
<path d="M51.4267 130.002C50.7239 133.123 46.2761 133.123 45.5733 130.002L32.4364 71.659C32.014 69.7833 33.4404 68 35.3631 68H61.6369C63.5596 68 64.986 69.7833 64.5636 71.659L51.4267 130.002Z" fill="#FF4154"/>
<path d="M61.2498 35.5001H56.9998C56.9998 30.8959 53.196 27.1667 48.4998 27.1667C43.8035 27.1667 39.9998 30.8959 39.9998 35.5001H35.7498C33.4123 35.5001 31.4998 37.3751 31.4998 39.6667V64.6667C31.4998 66.9584 33.4123 68.8334 35.7498 68.8334H61.2498C63.5873 68.8334 65.4998 66.9584 65.4998 64.6667V39.6667C65.4998 37.3751 63.5873 35.5001 61.2498 35.5001ZM48.4998 31.3334C50.8373 31.3334 52.7498 33.2084 52.7498 35.5001H44.2498C44.2498 33.2084 46.1623 31.3334 48.4998 31.3334ZM61.2498 64.6667H35.7498V39.6667H39.9998V43.8334C39.9998 44.9792 40.956 45.9167 42.1248 45.9167C43.2935 45.9167 44.2498 44.9792 44.2498 43.8334V39.6667H52.7498V43.8334C52.7498 44.9792 53.706 45.9167 54.8748 45.9167C56.0435 45.9167 56.9998 44.9792 56.9998 43.8334V39.6667H61.2498V64.6667Z" fill="white"/>
</svg>
