<svg width="96" height="143" viewBox="0 0 96 143" fill="none" xmlns="http://www.w3.org/2000/svg">
<circle cx="48" cy="48" r="48" fill="#F5BB77"/>
<path d="M51.4267 130.002C50.7239 133.123 46.2761 133.123 45.5733 130.002L32.4364 71.659C32.014 69.7833 33.4404 68 35.3631 68H61.6369C63.5596 68 64.986 69.7833 64.5636 71.659L51.4267 130.002Z" fill="#F5BB77"/>
<path d="M52.755 31.1667L56.6437 35.3333H65.25V60.3333H31.25V35.3333H39.8563L43.745 31.1667H52.755ZM54.625 27H41.875L37.9863 31.1667H31.25C28.9125 31.1667 27 33.0417 27 35.3333V60.3333C27 62.625 28.9125 64.5 31.25 64.5H65.25C67.5875 64.5 69.5 62.625 69.5 60.3333V35.3333C69.5 33.0417 67.5875 31.1667 65.25 31.1667H58.5137L54.625 27ZM48.25 41.5833C51.7562 41.5833 54.625 44.3958 54.625 47.8333C54.625 51.2708 51.7562 54.0833 48.25 54.0833C44.7438 54.0833 41.875 51.2708 41.875 47.8333C41.875 44.3958 44.7438 41.5833 48.25 41.5833ZM48.25 37.4167C42.385 37.4167 37.625 42.0833 37.625 47.8333C37.625 53.5833 42.385 58.25 48.25 58.25C54.115 58.25 58.875 53.5833 58.875 47.8333C58.875 42.0833 54.115 37.4167 48.25 37.4167Z" fill="white"/>
</svg>
