<svg width="33" height="34" viewBox="0 0 33 34" fill="none" xmlns="http://www.w3.org/2000/svg">
<path d="M21.1749 7.76709C23.4316 7.76709 25.2779 6.44137 25.2779 4.82105C25.2779 3.20072 23.4316 1.875 21.1749 1.875C18.9182 1.875 17.0718 3.20072 17.0718 4.82105C17.0718 6.44137 18.9182 7.76709 21.1749 7.76709ZM13.5842 12.7754L8.33224 31.7921C8.06554 32.6906 9.05028 33.545 10.3427 33.545H10.5069C11.4711 33.545 12.2917 33.0736 12.5174 32.396L15.8409 21.7608L20.1491 24.7069V32.072C20.1491 32.8821 21.0723 33.545 22.2006 33.545C23.329 33.545 24.2522 32.8821 24.2522 32.072V23.7641C24.2522 22.954 23.8008 22.188 22.9802 21.6282L19.9439 19.5513L21.1749 15.1322C23.37 16.9588 26.5499 18.2697 30.1196 18.6822C31.3505 18.8148 32.4583 18.1077 32.4583 17.2092C32.4583 16.4874 31.7198 15.8835 30.7145 15.7656C27.5962 15.3974 25.0112 14.0716 23.6367 12.3335L21.5852 9.97663C20.4363 8.66564 18.1386 8.13535 16.1486 8.73929L8.29121 11.1256C6.77307 11.597 5.78833 12.6575 5.78833 13.8507V17.3417C5.78833 18.1519 6.71152 18.8148 7.83987 18.8148C8.96821 18.8148 9.89141 18.1519 9.89141 17.3417V13.8065L13.5842 12.7754Z" fill="white"/>
</svg>
