<svg width="96" height="143" viewBox="0 0 96 143" fill="none" xmlns="http://www.w3.org/2000/svg">
<circle cx="48" cy="48" r="48" fill="#FF7152"/>
<path d="M51.4267 130.002C50.7239 133.123 46.2761 133.123 45.5733 130.002L32.4364 71.659C32.014 69.7833 33.4404 68 35.3631 68H61.6369C63.5596 68 64.986 69.7833 64.5636 71.659L51.4267 130.002Z" fill="#FF7152"/>
<path d="M52.4167 35.5417C54.4333 35.5417 56.0833 33.8167 56.0833 31.7083C56.0833 29.6 54.4333 27.875 52.4167 27.875C50.4 27.875 48.75 29.6 48.75 31.7083C48.75 33.8167 50.4 35.5417 52.4167 35.5417ZM33.1667 48C28.0333 48 24 52.2167 24 57.5833C24 62.95 28.0333 67.1667 33.1667 67.1667C38.3 67.1667 42.3333 62.95 42.3333 57.5833C42.3333 52.2167 38.3 48 33.1667 48ZM33.1667 64.2917C29.6833 64.2917 26.75 61.225 26.75 57.5833C26.75 53.9417 29.6833 50.875 33.1667 50.875C36.65 50.875 39.5833 53.9417 39.5833 57.5833C39.5833 61.225 36.65 64.2917 33.1667 64.2917ZM43.8 45.125L48.2 40.525L49.6667 42.0583C52.05 44.55 55.1667 46.0833 59.0167 46.0833V42.25C56.2667 42.25 54.0667 41.1 52.4167 39.375L48.9333 35.7333C48.0167 34.9667 47.1 34.5833 46 34.5833C44.9 34.5833 43.9833 34.9667 43.4333 35.7333L38.3 41.1C37.5667 41.8667 37.2 42.825 37.2 43.7833C37.2 44.9333 37.5667 45.8917 38.3 46.4667L44.1667 51.8333V61.4167H47.8333V49.5333L43.8 45.125ZM58.8333 48C53.7 48 49.6667 52.2167 49.6667 57.5833C49.6667 62.95 53.7 67.1667 58.8333 67.1667C63.9667 67.1667 68 62.95 68 57.5833C68 52.2167 63.9667 48 58.8333 48ZM58.8333 64.2917C55.35 64.2917 52.4167 61.225 52.4167 57.5833C52.4167 53.9417 55.35 50.875 58.8333 50.875C62.3167 50.875 65.25 53.9417 65.25 57.5833C65.25 61.225 62.3167 64.2917 58.8333 64.2917Z" fill="white"/>
</svg>
