<svg width="20" height="21" viewBox="0 0 20 21" fill="none" xmlns="http://www.w3.org/2000/svg">
<path d="M12.9167 4.8125C13.8333 4.8125 14.5833 4.025 14.5833 3.0625C14.5833 2.1 13.8333 1.3125 12.9167 1.3125C12 1.3125 11.25 2.1 11.25 3.0625C11.25 4.025 12 4.8125 12.9167 4.8125ZM4.16667 10.5C1.83333 10.5 0 12.425 0 14.875C0 17.325 1.83333 19.25 4.16667 19.25C6.5 19.25 8.33333 17.325 8.33333 14.875C8.33333 12.425 6.5 10.5 4.16667 10.5ZM4.16667 17.9375C2.58333 17.9375 1.25 16.5375 1.25 14.875C1.25 13.2125 2.58333 11.8125 4.16667 11.8125C5.75 11.8125 7.08333 13.2125 7.08333 14.875C7.08333 16.5375 5.75 17.9375 4.16667 17.9375ZM9 9.1875L11 7.0875L11.6667 7.7875C12.75 8.925 14.1667 9.625 15.9167 9.625V7.875C14.6667 7.875 13.6667 7.35 12.9167 6.5625L11.3333 4.9C10.9167 4.55 10.5 4.375 10 4.375C9.5 4.375 9.08333 4.55 8.83333 4.9L6.5 7.35C6.16667 7.7 6 8.1375 6 8.575C6 9.1 6.16667 9.5375 6.5 9.8L9.16667 12.25V16.625H10.8333V11.2L9 9.1875ZM15.8333 10.5C13.5 10.5 11.6667 12.425 11.6667 14.875C11.6667 17.325 13.5 19.25 15.8333 19.25C18.1667 19.25 20 17.325 20 14.875C20 12.425 18.1667 10.5 15.8333 10.5ZM15.8333 17.9375C14.25 17.9375 12.9167 16.5375 12.9167 14.875C12.9167 13.2125 14.25 11.8125 15.8333 11.8125C17.4167 11.8125 18.75 13.2125 18.75 14.875C18.75 16.5375 17.4167 17.9375 15.8333 17.9375Z" fill="#FF7152"/>
</svg>
