<svg width="40" height="40" viewBox="0 0 40 40" fill="none" xmlns="http://www.w3.org/2000/svg">
<g clip-path="url(#clip0_115_60)">
<path d="M6.66669 26.6668C6.66669 28.1335 7.31669 29.4502 8.33335 30.3668V33.3335C8.33335 34.2502 9.08335 35.0002 10 35.0002H11.6667C12.5834 35.0002 13.3334 34.2502 13.3334 33.3335V31.6668H26.6667V33.3335C26.6667 34.2502 27.4167 35.0002 28.3334 35.0002H30C30.9167 35.0002 31.6667 34.2502 31.6667 33.3335V30.3668C32.6834 29.4502 33.3334 28.1335 33.3334 26.6668V10.0002C33.3334 4.16683 27.3667 3.3335 20 3.3335C12.6334 3.3335 6.66669 4.16683 6.66669 10.0002V26.6668ZM12.5 28.3335C11.1167 28.3335 10 27.2168 10 25.8335C10 24.4502 11.1167 23.3335 12.5 23.3335C13.8834 23.3335 15 24.4502 15 25.8335C15 27.2168 13.8834 28.3335 12.5 28.3335ZM27.5 28.3335C26.1167 28.3335 25 27.2168 25 25.8335C25 24.4502 26.1167 23.3335 27.5 23.3335C28.8834 23.3335 30 24.4502 30 25.8335C30 27.2168 28.8834 28.3335 27.5 28.3335ZM30 18.3335H10V10.0002H30V18.3335Z" fill="current"/>
</g>
<defs>
<clipPath id="clip0_115_60">
<rect width="40" height="40" fill="white"/>
</clipPath>
</defs>
</svg>
