<svg width="126" height="108" viewBox="0 0 146 133" fill="none" xmlns="http://www.w3.org/2000/svg">
<path d="M60.3064 69H84.2059L145.5 133H0.5L60.3064 69Z" fill="#7C7676"/>
<g filter="url(#filter0_d_637_56)">
<path d="M34 67.6667C34 71.92 35.885 75.7383 38.8333 78.3967V87C38.8333 89.6583 41.0083 91.8333 43.6667 91.8333H48.5C51.1583 91.8333 53.3333 89.6583 53.3333 87V82.1667H92V87C92 89.6583 94.175 91.8333 96.8333 91.8333H101.667C104.325 91.8333 106.5 89.6583 106.5 87V78.3967C109.448 75.7383 111.333 71.92 111.333 67.6667V19.3333C111.333 2.41667 94.03 0 72.6667 0C51.3033 0 34 2.41667 34 19.3333V67.6667ZM50.9167 72.5C46.905 72.5 43.6667 69.2617 43.6667 65.25C43.6667 61.2383 46.905 58 50.9167 58C54.9283 58 58.1667 61.2383 58.1667 65.25C58.1667 69.2617 54.9283 72.5 50.9167 72.5ZM94.4167 72.5C90.405 72.5 87.1667 69.2617 87.1667 65.25C87.1667 61.2383 90.405 58 94.4167 58C98.4283 58 101.667 61.2383 101.667 65.25C101.667 69.2617 98.4283 72.5 94.4167 72.5ZM101.667 43.5H43.6667V19.3333H101.667V43.5Z" fill="#00A3FF"/>
</g>
<path d="M70.6667 86H75.5L78.5 97H67.5L70.6667 86Z" fill="#FBE300"/>
<path d="M66.5 101H79.5L89 125H57L66.5 101Z" fill="#FBE300"/>
<defs>
<filter id="filter0_d_637_56" x="30" y="0" width="85.3333" height="99.8333" filterUnits="userSpaceOnUse" color-interpolation-filters="sRGB">
<feFlood flood-opacity="0" result="BackgroundImageFix"/>
<feColorMatrix in="SourceAlpha" type="matrix" values="0 0 0 0 0 0 0 0 0 0 0 0 0 0 0 0 0 0 127 0" result="hardAlpha"/>
<feOffset dy="4"/>
<feGaussianBlur stdDeviation="2"/>
<feComposite in2="hardAlpha" operator="out"/>
<feColorMatrix type="matrix" values="0 0 0 0 0 0 0 0 0 0 0 0 0 0 0 0 0 0 0.25 0"/>
<feBlend mode="normal" in2="BackgroundImageFix" result="effect1_dropShadow_637_56"/>
<feBlend mode="normal" in="SourceGraphic" in2="effect1_dropShadow_637_56" result="shape"/>
</filter>
</defs>
</svg>
