<svg width="96" height="143" viewBox="0 0 96 143" fill="none" xmlns="http://www.w3.org/2000/svg">
<circle cx="48" cy="48" r="48" fill="#00A3FF"/>
<path d="M51.4268 130.002C50.724 133.123 46.2762 133.123 45.5734 130.002L32.4365 71.659C32.0142 69.7833 33.4405 68 35.3632 68H61.637C63.5597 68 64.9861 69.7833 64.5637 71.659L51.4268 130.002Z" fill="#00A3FF"/>
<path d="M38.2 53.925V50.4H45.9V46.5H30.725V41.675H45.65V37.75H26.4V50.4H33.9V53.925H25.225V57.85H46.825V53.925H38.2ZM56.6479 46.825L62.1729 50L64.1229 46.85L58.4479 43.7C58.5979 43.3 58.6729 42.9 58.7479 42.5H63.4729V39.025H58.7729V36.875H54.4729V39.025H49.7729V42.5H54.4229C53.8979 44.525 52.1729 46.3 49.5229 46.5V50.125C52.4979 50.05 54.9979 48.725 56.6479 46.825ZM71.8229 41.45H69.3229V37.25H65.0979V50.3H69.3229V45.55H71.8229V41.45ZM50.3729 54.6H65.0229V58.85H69.3229V51.05H50.3729V54.6Z" fill="white"/>
</svg>
