<svg width="96" height="143" viewBox="0 0 96 143" fill="none" xmlns="http://www.w3.org/2000/svg">
<circle cx="48" cy="48" r="48" fill="#FBE300"/>
<path d="M51.4267 130.002C50.7239 133.123 46.2761 133.123 45.5733 130.002L32.4364 71.659C32.014 69.7833 33.4404 68 35.3631 68H61.6369C63.5596 68 64.986 69.7833 64.5636 71.659L51.4267 130.002Z" fill="#FBE300"/>
<path d="M55.3333 36.9998V51.9998C55.3333 54.7498 57.3208 56.9998 59.75 56.9998H61.9583V74.4998C61.9583 75.8748 62.9521 76.9998 64.1667 76.9998C65.3812 76.9998 66.375 75.8748 66.375 74.4998V29.8248C66.375 28.1998 65.0279 26.9998 63.6367 27.3748C58.8667 28.6998 55.3333 33.2748 55.3333 36.9998ZM44.2917 44.4998H39.875V29.4998C39.875 28.1248 38.8812 26.9998 37.6667 26.9998C36.4521 26.9998 35.4583 28.1248 35.4583 29.4998V44.4998H31.0417V29.4998C31.0417 28.1248 30.0479 26.9998 28.8333 26.9998C27.6187 26.9998 26.625 28.1248 26.625 29.4998V44.4998C26.625 50.0248 30.5779 54.4998 35.4583 54.4998V74.4998C35.4583 75.8748 36.4521 76.9998 37.6667 76.9998C38.8812 76.9998 39.875 75.8748 39.875 74.4998V54.4998C44.7554 54.4998 48.7083 50.0248 48.7083 44.4998V29.4998C48.7083 28.1248 47.7146 26.9998 46.5 26.9998C45.2854 26.9998 44.2917 28.1248 44.2917 29.4998V44.4998Z" fill="white"/>
</svg>
