<svg width="23" height="23" viewBox="0 0 23 23" fill="none" xmlns="http://www.w3.org/2000/svg">
<path d="M17.25 5.74996H15.3333C15.3333 3.63204 13.6179 1.91663 11.5 1.91663C9.38206 1.91663 7.66665 3.63204 7.66665 5.74996H5.74998C4.69581 5.74996 3.83331 6.61246 3.83331 7.66663V19.1666C3.83331 20.2208 4.69581 21.0833 5.74998 21.0833H17.25C18.3041 21.0833 19.1666 20.2208 19.1666 19.1666V7.66663C19.1666 6.61246 18.3041 5.74996 17.25 5.74996ZM11.5 3.83329C12.5541 3.83329 13.4166 4.69579 13.4166 5.74996H9.58331C9.58331 4.69579 10.4458 3.83329 11.5 3.83329ZM17.25 19.1666H5.74998V7.66663H7.66665V9.58329C7.66665 10.1104 8.0979 10.5416 8.62498 10.5416C9.15206 10.5416 9.58331 10.1104 9.58331 9.58329V7.66663H13.4166V9.58329C13.4166 10.1104 13.8479 10.5416 14.375 10.5416C14.9021 10.5416 15.3333 10.1104 15.3333 9.58329V7.66663H17.25V19.1666Z" fill="#FF4154" fill-opacity="0.71"/>
</svg>
