<svg width="96" height="143" viewBox="0 0 96 143" fill="none" xmlns="http://www.w3.org/2000/svg">
<circle cx="48" cy="48" r="48" fill="#FF4154"/>
<path d="M51.4267 130.002C50.7239 133.123 46.2761 133.123 45.5733 130.002L32.4364 71.659C32.014 69.7833 33.4404 68 35.3631 68H61.6369C63.5596 68 64.986 69.7833 64.5636 71.659L51.4267 130.002Z" fill="#FF4154"/>
<path d="M45.35 45.65L46.15 42.725L38.225 41.225C38.3 41.1 38.35 40.975 38.4 40.825H45.725V37.9H38.175V36.4H33.875V37.9H26.325V40.825H33.7C32.375 41.875 29.05 42.475 25.95 42.55V45.55C29.525 45.5 33.025 44.825 35.425 43.625L45.35 45.65ZM46.825 49.05V46.125H25.225V49.05H33.875V49.95H26.45V52.45H41.45V53.175H26.5V58.6H45.8V56.075H30.625V55.35H45.575V49.95H38.175V49.05H46.825ZM69.3229 40.25V37.25H65.0979V47.95H69.3229V44.1H71.8229V40.25H69.3229ZM62.7729 37.5H58.6729V39.25H53.8479V37.5H49.7479V47.5H62.7729V37.5ZM53.8479 44.225V42.45H58.6729V44.225H53.8479ZM54.6479 54.95H69.3229V48.7H50.4479V51.525H65.1729V52.35H50.4979V58.6H69.5479V55.775H54.6479V54.95Z" fill="white"/>
</svg>
