<svg width="18" height="18" viewBox="0 0 18 18" fill="none" xmlns="http://www.w3.org/2000/svg">
<path d="M16.8482 1.12915C16.3613 0.642218 15.5747 0.642218 15.0878 1.12915L8.98243 7.222L2.8771 1.11666C2.39017 0.629733 1.60359 0.629733 1.11666 1.11666C0.629733 1.60359 0.629733 2.39017 1.11666 2.8771L7.222 8.98243L1.11666 15.0878C0.629733 15.5747 0.629733 16.3613 1.11666 16.8482C1.60359 17.3351 2.39017 17.3351 2.8771 16.8482L8.98243 10.7429L15.0878 16.8482C15.5747 17.3351 16.3613 17.3351 16.8482 16.8482C17.3351 16.3613 17.3351 15.5747 16.8482 15.0878L10.7429 8.98243L16.8482 2.8771C17.3226 2.40265 17.3226 1.60359 16.8482 1.12915Z" fill="white"/>
</svg>
